HIERARCHY
ROOT Pelvis
{
	OFFSET 0.000000 0.000000 0.000000
	CHANNELS 6 Xposition Yposition Zposition Zrotation Yrotation Xrotation 
	JOINT Left_hip
	{
		OFFSET 0.067986 -0.089946 -0.007639
		CHANNELS 3 Zrotation Yrotation Xrotation
		JOINT Left_knee
		{
			OFFSET 0.036308 -0.388288 -0.004016
			CHANNELS 3 Zrotation Yrotation Xrotation
			JOINT Left_ankle
			{
				OFFSET -0.012264 -0.413250 -0.042878
				CHANNELS 3 Zrotation Yrotation Xrotation
				JOINT Left_foot
				{
					OFFSET 0.024043 -0.058563 0.118570
					CHANNELS 3 Zrotation Yrotation Xrotation
					End Site
					{
						OFFSET 0.000000 0.000000 0.000000
					}
				}
			}
		}
	}
	JOINT Right_hip
	{
		OFFSET -0.065648 -0.089374 -0.003858
		CHANNELS 3 Zrotation Yrotation Xrotation
		JOINT Right_knee
		{
			OFFSET -0.042132 -0.395021 -0.006361
			CHANNELS 3 Zrotation Yrotation Xrotation
			JOINT Right_ankle
			{
				OFFSET 0.014805 -0.413264 -0.041054
				CHANNELS 3 Zrotation Yrotation Xrotation
				JOINT Right_foot
				{
					OFFSET -0.021758 -0.049013 0.121832
					CHANNELS 3 Zrotation Yrotation Xrotation
					End Site
					{
						OFFSET 0.000000 0.000000 0.000000
					}
				}
			}
		}
	}
	JOINT Spine1
	{
		OFFSET -0.002755 0.104406 -0.022277
		CHANNELS 3 Zrotation Yrotation Xrotation
		JOINT Spine2
		{
			OFFSET 0.004136 0.129393 -0.002186
			CHANNELS 3 Zrotation Yrotation Xrotation
			JOINT Spine3
			{
				OFFSET 0.001906 0.049304 0.025578
				CHANNELS 3 Zrotation Yrotation Xrotation
				JOINT Neck
				{
					OFFSET -0.004620 0.210958 -0.044063
					CHANNELS 3 Zrotation Yrotation Xrotation
					JOINT Head
					{
						OFFSET 0.003833 0.067393 0.052435
						CHANNELS 3 Zrotation Yrotation Xrotation
						End Site
						{
							OFFSET 0.000000 0.000000 0.000000
						}
					}
				}
				JOINT Left_collar
				{
					OFFSET 0.070771 0.116689 -0.037192
					CHANNELS 3 Zrotation Yrotation Xrotation
					JOINT Left_shoulder
					{
						OFFSET 0.080652 0.031596 -0.005617
						CHANNELS 3 Zrotation Yrotation Xrotation
						JOINT Left_elbow
						{
							OFFSET 0.262654 -0.015020 -0.027939
							CHANNELS 3 Zrotation Yrotation Xrotation
							JOINT Left_wrist
							{
								OFFSET 0.250438 0.010062 -0.000990
								CHANNELS 3 Zrotation Yrotation Xrotation
								JOINT Left_palm
								{
									OFFSET 0.081198 -0.010037 -0.013706
									CHANNELS 3 Zrotation Yrotation Xrotation
									End Site
									{
										OFFSET 0.000000 0.000000 0.000000
									}
								}
							}
						}
					}
				}
				JOINT Right_collar
				{
					OFFSET -0.072972 0.115556 -0.040762
					CHANNELS 3 Zrotation Yrotation Xrotation
					JOINT Right_shoulder
					{
						OFFSET -0.082917 0.031841 -0.006673
						CHANNELS 3 Zrotation Yrotation Xrotation
						JOINT Right_elbow
						{
							OFFSET -0.252882 -0.013790 -0.020410
							CHANNELS 3 Zrotation Yrotation Xrotation
							JOINT Right_wrist
							{
								OFFSET -0.255570 0.009163 -0.005138
								CHANNELS 3 Zrotation Yrotation Xrotation
								JOINT Right_palm
								{
									OFFSET -0.080804 -0.007282 -0.010415
									CHANNELS 3 Zrotation Yrotation Xrotation
									End Site
									{
										OFFSET 0.000000 0.000000 0.000000
									}
								}
							}
						}
					}
				}
			}
		}
	}
}
MOTION
Frames: 13
Frame Time: 0.100000
0.000000 0.000000 0.000000 174.996566 22.556066 -12.900302 7.182055 5.663137 3.825124 -2.611521 -18.885345 -2.638053 -4.823887 15.272822 -5.520328 3.135103 -1.369579 -4.674907 -4.149062 -5.633665 2.452593 4.048879 11.691942 1.073426 4.747521 -15.441418 -7.703799 1.649373 4.958029 5.966861 0.683558 1.684833 1.279941 0.788702 -3.101079 1.533935 0.736348 1.390731 0.796917 -5.223152 -0.314818 13.290952 4.873446 1.847712 -5.458782 -3.853396 5.067719 -9.049339 1.824140 -2.779136 -14.158130 1.727904 -4.764623 -6.182725 1.329958 -6.328588 25.897743 -6.477126 -8.304725 -7.713208 3.010251 -2.331845 -3.277772 -2.245546 -4.797377 -18.640087 -0.920285 6.982424 1.341770 1.099543 6.735752 28.458429 10.994794 8.266707 -6.423875 
-0.000409 0.000069 -0.000613 175.002519 22.460734 -12.914053 7.157674 5.679227 3.847245 -2.621956 -18.858429 -2.649338 -4.782700 15.305940 -5.517692 3.126264 -1.372912 -4.672248 -4.179023 -5.625523 2.447039 4.048564 11.744578 1.046570 4.777928 -15.433116 -7.654912 1.618829 4.971297 5.943200 0.696060 1.677180 1.345273 0.808067 -3.107318 1.555532 0.752079 1.390480 0.819338 -5.245387 -0.367372 13.272676 4.858498 1.820945 -5.441884 -3.855263 5.061748 -9.050487 1.843791 -2.739938 -14.160417 1.715703 -4.787929 -6.156680 1.391507 -6.268344 25.925209 -6.493845 -8.330313 -7.746246 3.045181 -2.300531 -3.294952 -2.275385 -4.768032 -18.674142 -0.926244 7.007466 1.272526 1.052223 6.693315 28.488393 11.012760 8.272694 -6.473056 
-0.000925 0.000130 -0.002169 174.989712 22.239287 -12.949616 7.107357 5.698281 3.679353 -2.727409 -18.744187 -2.313291 -4.660482 15.419795 -5.564860 3.102975 -1.410745 -4.824690 -4.236922 -5.527243 2.092489 4.176697 11.920420 1.566392 4.965707 -15.384085 -7.621034 1.288259 5.106771 5.792687 0.740580 1.655629 1.614163 0.853843 -3.078717 1.443978 0.783495 1.421340 0.878086 -5.269667 -0.445611 13.122566 4.861461 1.865526 -5.264463 -3.793822 5.137811 -9.038141 1.740351 -2.672605 -14.191054 1.787573 -5.028517 -6.006689 1.360888 -6.089038 25.961121 -6.523505 -8.402608 -7.798803 3.070905 -2.318421 -3.285737 -2.196638 -4.643251 -18.734207 -0.965150 7.038697 1.204442 1.014365 6.543070 28.620267 11.033936 8.307771 -6.554287 
-0.003629 0.000625 -0.006937 175.251960 20.896869 -12.892363 6.606322 5.815819 3.237264 -2.849298 -17.941932 -1.314698 -4.217938 15.871315 -5.797562 2.969527 -1.485000 -5.081387 -4.425376 -5.376691 1.105393 4.196278 12.382964 2.549993 5.581003 -15.015410 -7.362969 0.422657 5.537974 5.328845 0.961810 1.777218 2.357985 0.850343 -2.807445 1.377660 0.794601 1.667556 1.010215 -5.291138 -0.761019 12.681967 4.998932 1.860109 -5.242458 -3.858140 5.308012 -9.056729 1.176788 -2.324523 -14.032113 2.161280 -5.948230 -5.680952 1.366666 -5.801431 26.113838 -6.607780 -8.646238 -8.128767 3.178508 -2.157017 -3.083840 -2.075974 -4.363372 -18.929836 -1.136342 7.630700 0.914619 1.008491 6.335830 28.690742 11.033993 8.379704 -6.920541 
-0.009902 0.001726 -0.015727 175.454718 19.746099 -12.780800 5.968904 5.841882 2.624507 -3.181914 -16.870774 -0.602030 -3.770074 15.878352 -6.016332 3.036353 -1.279246 -5.067439 -4.877152 -5.058126 -0.116990 4.141342 12.419121 3.523886 6.269516 -14.400341 -6.994365 -0.690906 5.683498 4.848137 0.963411 1.760606 3.099562 0.997891 -2.786857 1.735906 0.800688 1.689341 0.876374 -4.973784 -1.538021 12.282764 5.481963 1.305777 -5.042181 -4.712806 5.503319 -8.933829 0.347279 -2.279332 -13.184597 3.339760 -8.973898 -4.990053 1.524351 -6.563963 26.381868 -6.841361 -8.794394 -8.582090 4.078485 -2.237418 -3.154651 -1.177433 -4.296059 -18.625818 -2.445805 11.345328 -1.315097 0.729651 7.031768 26.596914 11.144520 8.179241 -6.923344 
-0.019378 0.003836 -0.027550 175.577406 18.405724 -12.583379 5.277092 5.720950 2.246895 -3.412784 -15.447638 -0.828769 -2.902054 15.426301 -6.113224 2.806401 -0.341450 -4.679472 -5.393094 -4.620820 -1.723705 3.979666 11.993615 4.630455 7.033568 -13.377673 -6.560835 -1.803556 5.317868 4.451326 0.539391 1.624395 3.914981 1.408479 -2.994560 2.059535 0.871242 1.424332 0.609444 -4.387719 -2.070615 11.686130 6.073928 0.248695 -4.827471 -5.829006 5.456740 -8.817207 -0.775866 -2.541971 -11.883084 4.871311 -12.422031 -5.210657 0.224267 -7.213211 25.533732 -7.108162 -8.743115 -9.009610 5.992905 -2.377688 -3.613223 1.209307 -4.135807 -17.184232 -5.889979 19.076638 -4.733499 0.249072 7.792327 23.146901 11.603071 7.610933 -6.858954 
-0.030548 0.006722 -0.041327 175.690096 16.772769 -12.431507 4.592198 5.539948 1.919220 -3.726637 -13.455565 -1.247349 -1.562214 14.562939 -6.092755 1.996137 1.122695 -4.102774 -6.012255 -3.834050 -3.086665 3.626458 11.378842 4.869750 7.837194 -12.087541 -5.676102 -2.975799 4.851982 4.160783 -0.371384 1.674330 4.721792 1.971762 -3.284122 2.743567 0.940370 1.070042 0.442202 -3.753396 -2.430463 10.828641 7.156813 -1.298027 -5.001397 -7.029727 5.308592 -8.400250 -3.243953 -3.483544 -9.886562 6.742987 -16.805814 -8.362510 -1.038347 -7.503360 20.096712 -7.907991 -8.328504 -9.466228 8.537551 -2.570351 -4.211925 6.600652 -3.558662 -14.916963 -11.896022 28.128751 -13.389907 -1.805953 8.032934 14.151732 12.758127 6.640963 -6.363983 
-0.041121 0.009942 -0.057279 175.583335 14.584423 -12.063447 4.214161 5.555933 1.172614 -4.051259 -11.109165 -1.797337 -0.220440 13.685498 -5.620138 1.147185 2.590066 -4.290103 -6.223968 -3.237403 -5.281214 3.316162 10.703790 5.515377 8.930230 -10.508719 -4.337294 -4.706304 4.355697 3.524607 -1.247032 1.562314 5.710337 2.432660 -3.515740 3.535369 0.933993 0.646608 0.063146 -2.744394 -2.469344 9.576292 7.851246 -2.609345 -4.831346 -8.520615 5.083581 -7.876607 -7.617378 -4.551569 -7.242541 9.479184 -22.358854 -7.619301 -1.578967 -7.547460 19.797800 -8.497785 -8.341217 -10.402899 11.495999 -2.634393 -4.257487 14.106624 -2.347591 -11.120045 -16.758659 35.523256 -15.806213 -2.887750 8.068488 11.088617 13.415164 6.452422 -6.258981 
-0.048754 0.012935 -0.073678 175.350446 11.537405 -11.214198 4.218213 5.762207 -0.215551 -4.283234 -8.322971 -2.240388 0.845553 13.143721 -4.926205 0.300967 3.703692 -4.974336 -6.038924 -2.587950 -8.277690 3.338220 10.262672 6.119074 10.434529 -9.051551 -2.726463 -7.150372 4.618113 2.834197 -1.936774 1.628032 7.456697 2.505149 -3.468924 3.539236 1.006594 0.539829 -0.499743 -1.845666 -2.517719 7.305595 9.278087 -3.991820 -4.804511 -10.547862 3.854695 -7.309409 -12.201614 -5.451643 -4.336791 11.261586 -27.207573 -6.625486 -3.503604 -7.591683 20.758711 -9.004066 -8.713378 -11.364160 14.507421 -2.010645 -3.410486 22.505770 -4.108302 -6.042950 -17.351364 42.790724 -12.593613 -0.405269 8.364921 10.533338 13.638804 6.879562 -6.479251 
-0.052448 0.014603 -0.086977 175.030431 8.121430 -10.706556 4.668984 6.436974 -0.833132 -4.162771 -6.072473 -2.963594 1.280285 12.563173 -4.282868 0.362467 5.159841 -5.007849 -5.162100 -2.931094 -10.183517 3.470499 7.357937 6.575970 9.565047 -8.668125 -3.021826 -6.315510 2.996392 2.834813 -2.748880 0.981734 8.020888 2.975225 -4.010766 4.865713 1.035282 -0.523654 -1.362953 -0.427563 -1.255403 7.053368 8.526115 -4.365415 -5.277034 -12.187318 3.635187 -6.562542 -17.738295 -6.274561 -0.778974 11.041674 -30.578870 -2.770155 -5.594496 -6.819519 23.311716 -9.583641 -8.546381 -12.331620 17.298143 -1.637593 -3.036218 30.151561 -2.567531 0.167745 -12.723599 44.627618 -3.419300 2.393361 7.820081 10.709145 13.489012 7.042718 -6.032724 
-0.052663 0.013942 -0.096034 174.609413 5.285684 -9.812151 5.199586 7.288115 -1.810523 -3.706139 -4.195798 -3.484934 0.946505 12.049215 -3.384250 0.795778 6.332438 -5.384803 -3.750623 -3.907137 -10.818976 3.632782 3.716943 7.983377 8.018508 -9.290809 -3.912372 -5.001594 1.808014 3.821721 -3.011237 0.428491 7.940708 3.549696 -4.711838 5.480220 1.211617 -1.398863 -2.288434 0.458832 -0.582449 6.879782 7.941973 -4.465634 -5.063347 -14.296337 2.496595 -5.685972 -23.634158 -8.671219 2.845247 9.373770 -31.384261 0.858896 -6.781573 -5.954622 24.925472 -10.677540 -9.048568 -13.000974 19.830534 -1.747545 -2.717430 36.287666 -4.116740 5.092510 -7.509983 44.279035 5.814238 4.454953 7.129752 13.150326 14.393349 8.244939 -6.235240 
-0.049544 0.015121 -0.103693 174.839831 1.387232 -9.115064 5.837437 8.491035 -2.256641 -3.636968 -2.548950 -3.614744 1.015039 12.289768 -3.161967 0.954469 7.000019 -6.192127 -2.763331 -4.432710 -10.891728 3.834056 1.655749 11.409590 6.552812 -9.907274 -5.314385 -3.858699 1.325333 4.445574 -3.466857 -0.108061 7.754338 4.019327 -5.232711 6.008748 1.311211 -2.032142 -3.106083 1.305337 -0.077319 6.330906 7.214220 -3.914641 -4.179958 -15.859518 1.235236 -4.589259 -29.481365 -11.288118 6.967690 6.656938 -32.314864 5.391273 -6.628209 -4.346120 25.295536 -12.379331 -10.110930 -14.226874 21.577314 -1.949387 -2.382315 41.694228 -5.131397 8.853788 -4.559731 39.276849 9.843852 5.030490 4.951825 11.886633 16.031924 9.789580 -6.553243 
-0.043801 0.015908 -0.109392 175.321675 -3.285230 -8.494358 6.591182 9.929603 -2.136387 -3.445861 -0.888502 -3.965074 0.863948 12.929854 -3.004741 1.304208 7.483242 -6.840613 -2.278775 -5.318768 -10.051535 3.799097 -0.302821 14.459685 4.961295 -10.632898 -6.780645 -2.304273 0.803543 5.302065 -3.302136 -0.636170 7.156906 4.214397 -5.648643 6.846591 1.303815 -2.395539 -3.919833 1.886259 -0.493764 6.553153 6.281244 -3.202270 -3.629162 -17.695401 -0.195910 -3.551008 -35.438298 -13.366104 10.783087 4.900293 -34.167437 8.582465 -5.698112 -2.247461 25.575202 -14.441932 -11.753052 -15.457626 22.448721 -1.733986 -1.699780 44.775315 -6.237146 11.763653 -0.915787 33.870074 15.272819 6.734050 2.650668 12.942444 17.666228 11.944703 -7.516868 
